

<svg version="1.1" id="pioneer" xmlns="http://www.w3.org/2000/svg" xmlns:xlink="http://www.w3.org/1999/xlink" x="0px" y="0px"
	 width="500px" height="135px" viewBox="0 0 500 135" enable-background="new 0 0 500 135" xml:space="preserve">
<path fill="#ED174C" d="M87.2,131.4l-16.8-29.9h60.7l-30.5-64.6l-44.7,94.5H2.5l70-127.5h56.3l69.4,127.5H87.2z M198.5,57.3h66.6
	c16.8,0,23.5-1,23.5-12.9c0-11.4-5.4-12.7-22.7-12.7h-67.7l-15-27.9h94c44.4,0,60.9,19.4,60.9,40c0,19.9-15.2,41.8-64,41.8h-22.2
	v45.7h-53.7v-74L198.5,57.3L198.5,57.3z M477.4,121.9c-16,7.5-35.9,11.1-57.1,11.1c-64,0-86-35.6-86-65.1
	c0-37.2,32.5-65.8,88.6-65.8c20.4,0,38.2,3.1,53.2,8.8v36.9c-15.5-8.3-28.9-11.9-44.7-11.9c-26.9,0-48.8,12.1-48.8,31.5
	c0,19.1,22.5,31.5,49.3,31.5c15.5,0,28.1-3.1,45.4-11.1v34.1H477.4z"/>
<path fill="#1D1D1B" d="M481,19.7c0-4.7,3.8-8.1,8.3-8.1c4.4,0,8.2,3.4,8.2,8.1s-3.8,8.1-8.2,8.1C484.8,27.9,481,24.4,481,19.7
	L481,19.7z M489.3,26.5c3.7,0,6.6-2.9,6.6-6.8c0-3.8-2.9-6.8-6.6-6.8s-6.6,2.9-6.6,6.8C482.7,23.6,485.6,26.5,489.3,26.5L489.3,26.5
	z M487.6,24.4h-1.4V15h3.6c2.2,0,3.3,0.8,3.3,2.7c0,1.7-1.1,2.4-2.4,2.6l2.7,4.1h-1.6l-2.5-4.1h-1.6v4.1l1.7-5.3
	c1.2,0,2.3-0.1,2.3-1.5c0-1.2-1.1-1.4-2-1.4h-1.9v2.9h1.7L487.6,24.4L487.6,24.4z"/>
</svg>
