

<svg version="1.1" id="canon" xmlns="http://www.w3.org/2000/svg" xmlns:xlink="http://www.w3.org/1999/xlink" x="0px" y="0px"
	 width="340px" height="135px" viewBox="0 0 340 135" enable-background="new 0 0 340 135" xml:space="preserve">
<path fill="#4C81C2" d="M337.2,9.6h-55.7L285,0h52.2V9.6z M188.8,9.6c0,0,55.1,0,55,0L240.5,0l-51.7,0C188.8,0,188.8,9.6,188.8,9.6z
	 M76.3,0c0,0,0,9.6,0,9.6c0,0,93.7,0,93.7,0c-6.3-5.8-13.7-8.8-22.2-9.6L76.3,0z M2.8,9.6h65.1V0H2.8V9.6z M35.4,4.8 M337.2,18.1
	h-58.7c0,0-3.4,9.5-3.4,9.5h62V18.1z M246.9,18.1h-58.1v9.6h61.5L246.9,18.1z M76.3,18.1v9.6H180c0-3.7-1.5-6.4-2.7-9.6H76.3z
	 M2.8,27.6h65.1v-9.6H2.8V27.6z M35.4,22.8 M318.8,45.6v-9.6l-46.6,0l-3.4,9.6L318.8,45.6z M207.1,36.1v9.6h49.5l-3.4-9.6H207.1z
	 M151.1,36.1v9.6h28.4c1-2.9,1.4-6.3,1.4-9.6H151.1z M21,45.7h28v-9.5H21V45.7z M34.9,40.9 M95.2,45.7h27.9v-9.6H95.2V45.7z
	 M109.1,40.9 M237.2,63.3l51.7,0l2.5-7.3c0,0,0,7.3,0,7.3h27.4v-9.6h-52.8c0,0-3.1,8.9-3.1,8.9l-3.3-8.9h-52.4v9.5h27.5
	c0,0,0-7.3,0-7.3L237.2,63.3z M95.2,63.3c0,0,72.2,0,72.2,0c3-2.5,6.2-6.4,8-9.6v0H95.2C95.2,53.8,95.2,63.3,95.2,63.3z M21,63.3h28
	v-9.6H21V63.3z M34.9,58.5 M291.4,81.3h27.4v-9.6h-27.4V81.3z M305.1,76.5 M234.6,71.8h-27.5v9.6c0,0,27.5,0,27.5,0
	C234.6,81.3,234.7,71.8,234.6,71.8z M240.1,71.8c0,0,3.4,9.6,3.4,9.6l39,0c0.1,0,3.2-9.6,3.3-9.6H240.1z M95.2,81.3
	c0,0,80.8,0,80.7,0c-2.3-3.4-5.3-6.8-8.6-9.6H95.2C95.2,71.8,95.2,81.3,95.2,81.3z M48.9,81.3v-9.6H21c0,0,0,9.5,0,9.5
	C21,81.3,48.9,81.3,48.9,81.3z M291.4,99.3h27.4v-9.6h-27.4V99.3z M305.1,94.5 M207.1,99.3h27.5v-9.6h-27.5V99.3z M220.9,94.5
	 M276.1,99.4c0,0,3.4-9.6,3.4-9.6h-33.1c-0.1,0,3.4,9.6,3.4,9.6S276.1,99.4,276.1,99.4z M123.5,99.3c0,0,0-9.6,0-9.6H95.2
	c0,0,0,9.6,0,9.6C95.2,99.3,123.5,99.3,123.5,99.3z M151.6,89.8v9.6h30c-0.3-3.3-0.4-6.7-1.8-9.6H151.6z M21,99.3h27.9v-9.5H21V99.3
	z M35,94.5 M291.4,116.9h45.8v-9.6h-45.8V116.9z M314.3,112.2 M188.8,116.9h45.8v-9.6h-45.8V116.9z M211.7,112.2 M273.2,107.4h-20.6
	l3.4,9.6h14L273.2,107.4z M2.8,107.4v9.6h65c0,0,0-9.5,0-9.5C67.9,107.4,2.7,107.4,2.8,107.4z M76.3,107.4v9.6h99.6l0.9,0
	c2.3-2.6,2.9-6.4,3.6-9.6H76.3z M267,125.4h-7.9l3.3,9.6h1.3L267,125.4z M291.4,135h45.8v-9.6h-45.8V135z M314.3,130.2 M76.3,135
	l69.9,0c9.3-0.1,18-3.5,24.3-9.6c-0.3,0-94.2,0-94.2,0L76.3,135 M188.8,135h45.8v-9.6h-45.8V135z M211.7,130.2 M2.8,125.4
	c0,0,0,9.6,0,9.6c0,0,65.1,0,65,0c0,0,0-9.5,0-9.5C67.8,125.5,2.8,125.4,2.8,125.4z"/>
</svg>
